<svg xmlns="http://www.w3.org/2000/svg" version="1.1" xmlns:xlink="http://www.w3.org/1999/xlink" viewBox="0 0 200 200"><rect width="200" height="200" fill="url('#gradient')"></rect><defs><linearGradient id="gradient" gradientTransform="rotate(45 0.5 0.5)"><stop offset="0%" stop-color="#357318"></stop><stop offset="100%" stop-color="#357318"></stop></linearGradient></defs><g><g fill="#ffffff" transform="matrix(10.339417475728155,0,0,10.339417475728155,13.666254480000845,175.94665221223553)" stroke="#ffffff" stroke-width="0.2"><path d="M7.31 0L7.22-1.14Q6.17 0.20 4.39 0.20L4.39 0.20Q2.66 0.20 1.76-0.82Q0.87-1.83 0.87-3.72L0.87-3.72L0.87-10.57L4.16-10.57L4.16-3.70Q4.16-2.34 5.48-2.34L5.48-2.34Q6.61-2.34 7.09-3.15L7.09-3.15L7.09-10.57L10.40-10.57L10.40 0L7.31 0ZM15.67-10.57L15.67 0L12.37 0L12.37-10.57L15.67-10.57ZM12.18-13.29L12.18-13.29Q12.18-13.99 12.69-14.44Q13.19-14.89 14.00-14.89Q14.81-14.89 15.32-14.44Q15.83-13.99 15.83-13.29Q15.83-12.59 15.32-12.14Q14.81-11.69 14.00-11.69Q13.19-11.69 12.69-12.14Q12.18-12.59 12.18-13.29Z"></path></g></g></svg>